
<svg version="1.0" xmlns="http://www.w3.org/2000/svg"
 width="40px" height="40px" viewBox="0 0 800.000000 701.000000"
 preserveAspectRatio="xMidYMid meet">

<g transform="translate(0.000000,701.000000) scale(0.100000,-0.100000)"
fill="#156cb0" stroke="none">
<path d="M6530 6963 c-14 -2 -650 -161 -1415 -353 -764 -192 -2018 -507 -2785
-700 -1056 -265 -1410 -357 -1458 -381 -115 -56 -212 -181 -241 -309 -23 -99
-14 -166 59 -453 39 -151 70 -279 70 -284 0 -6 -71 -12 -177 -16 -207 -6 -272
-21 -373 -89 -100 -66 -167 -163 -195 -280 -22 -93 -22 -3597 0 -3701 28 -134
127 -268 242 -330 113 -60 -74 -57 3058 -57 1956 0 2891 3 2935 11 92 15 200
69 264 134 66 65 122 174 136 265 6 41 10 426 10 1025 l0 960 488 123 c308 78
510 134 548 153 163 77 266 269 250 464 -3 42 -129 564 -316 1310 -498 1981
-555 2205 -586 2270 -81 173 -302 275 -514 238z m219 -266 c22 -15 52 -44 66
-66 27 -40 59 -162 622 -2406 292 -1167 290 -1153 240 -1237 -33 -57 -76 -94
-125 -108 -47 -13 -881 -220 -887 -220 -3 0 -5 294 -5 653 0 365 -5 681 -10
719 -28 193 -140 342 -308 407 l-67 26 -2630 3 -2630 2 -74 295 c-92 369 -93
420 -17 503 49 55 -217 -15 3036 801 1053 265 2073 522 2265 571 400 103 447
108 524 57z m-481 -2493 c54 -22 99 -71 122 -131 20 -53 20 -79 20 -1203 l0
-1150 -3082 2 -3083 3 -3 1090 c-2 695 1 1118 7 1167 16 116 61 191 136 224
25 11 541 13 2938 14 2605 0 2912 -2 2945 -16z m142 -3533 l0 -239 -28 -53
c-21 -42 -40 -61 -82 -86 l-54 -33 -2901 0 c-3220 0 -2955 -6 -3029 66 -69 67
-71 74 -74 328 -2 125 -1 234 2 242 5 12 455 14 3086 14 l3080 0 0 -239z"/>
<path d="M6085 6319 c-582 -132 -634 -148 -713 -214 -38 -32 -87 -108 -114
-177 -27 -70 -25 -171 7 -299 14 -52 38 -163 55 -245 59 -286 91 -374 166
-454 57 -60 162 -116 238 -125 71 -9 124 0 506 91 214 50 335 83 376 104 92
45 148 99 191 188 36 71 38 81 37 166 0 77 -12 138 -73 394 -39 167 -81 327
-92 355 -56 149 -178 237 -344 250 -58 4 -99 -2 -240 -34z m353 -110 c23 -12
42 -24 42 -28 0 -7 -120 -35 -125 -29 -1 2 -6 23 -10 47 l-7 44 28 -7 c16 -4
48 -16 72 -27z m-201 -31 c6 -29 10 -54 9 -54 0 -1 -143 -33 -316 -72 -231
-52 -316 -68 -322 -59 -10 16 -21 87 -15 93 7 8 578 142 608 143 22 1 26 -4
36 -51z m339 -139 c7 -19 22 -80 35 -137 19 -83 21 -105 10 -111 -18 -12 -163
-43 -169 -36 -7 6 -70 279 -66 284 5 6 158 39 169 37 6 -1 15 -18 21 -37z
m-1093 -6 c2 -5 7 -24 11 -44 6 -36 6 -36 -31 -43 -21 -3 -49 -9 -63 -13 l-25
-7 19 30 c23 36 67 84 77 84 4 0 10 -3 12 -7z m826 -164 c17 -78 30 -143 28
-145 -5 -6 -599 -144 -618 -144 -13 0 -22 25 -43 113 -15 62 -29 129 -32 148
l-6 34 299 67 c164 36 307 67 319 67 18 1 24 -14 53 -140z m-748 -169 l36
-150 -35 -10 c-88 -24 -143 -33 -151 -24 -9 11 -61 240 -61 271 0 19 11 24 83
41 45 11 84 20 88 21 3 1 21 -66 40 -149z m1136 -165 c18 -77 33 -147 33 -156
0 -12 -23 -21 -90 -36 l-90 -20 -9 36 c-34 134 -63 272 -58 278 9 8 149 42
166 40 10 -1 25 -46 48 -142z m-293 -77 c20 -83 33 -155 29 -159 -9 -8 -623
-152 -628 -147 -5 4 -76 311 -73 313 5 5 603 144 619 144 14 1 24 -30 53 -151z
m-748 -164 c19 -76 33 -146 34 -156 0 -12 -20 -21 -87 -37 -48 -11 -89 -19
-90 -17 -6 5 -73 284 -73 300 0 10 27 21 83 34 45 11 86 19 91 18 5 -1 24 -65
42 -142z m1044 -63 c0 -11 -47 -69 -75 -93 -25 -21 -32 -14 -41 38 l-6 41 43
10 c58 14 79 15 79 4z m-220 -97 c7 -30 9 -58 6 -61 -5 -6 -567 -139 -610
-145 -16 -2 -22 7 -33 51 -8 29 -12 56 -9 59 5 4 599 147 628 151 4 1 12 -24
18 -55z m-747 -167 c5 -21 7 -41 3 -44 -9 -9 -76 13 -116 39 l-35 22 50 12
c75 19 88 15 98 -29z"/>
</g>
</svg>
