
<svg version="1.0" xmlns="http://www.w3.org/2000/svg"
 width="40px" height="40px" viewBox="0 0 800.000000 800.000000"
 preserveAspectRatio="xMidYMid meet">

<g transform="translate(0.000000,800.000000) scale(0.100000,-0.100000)"
fill="#156cb0" stroke="none">
<path d="M302 7989 c-61 -12 -157 -66 -198 -112 -20 -22 -50 -69 -68 -106
l-31 -66 -3 -3665 c-2 -2706 0 -3681 8 -3725 23 -118 100 -219 209 -273 l56
-27 3025 0 3025 0 57 27 c79 37 142 98 181 177 l32 65 3 246 c1 140 -1 251 -7
259 -12 18 -48 17 -151 -8 -47 -11 -130 -25 -184 -30 -127 -11 -136 -20 -136
-128 0 -69 -2 -77 -29 -104 l-29 -29 -2761 0 -2760 0 -28 24 -28 24 0 3267 0
3267 28 24 28 24 2762 0 c2155 -1 2765 -3 2778 -13 39 -30 39 -14 39 -1336 0
-1127 2 -1281 15 -1295 12 -12 41 -15 143 -14 106 1 137 -2 187 -20 73 -27 90
-27 115 -2 20 20 20 29 18 1648 l-3 1627 -29 63 c-37 80 -122 161 -203 194
l-58 23 -2980 1 c-1639 1 -2999 -2 -3023 -7z m330 -316 c35 -21 68 -80 68
-120 0 -61 -72 -133 -133 -133 -43 0 -92 25 -116 58 -26 37 -29 116 -5 151 41
57 127 78 186 44z m376 -3 c84 -51 79 -185 -9 -232 -90 -48 -199 15 -199 115
0 108 116 173 208 117z m363 5 c99 -52 88 -207 -17 -244 -113 -39 -212 60
-173 173 26 75 117 108 190 71z m4573 1 c73 -31 104 -112 67 -181 -44 -82 126
-75 -1756 -75 -1851 0 -1714 -5 -1755 63 -41 66 -16 157 51 190 31 15 166 17
1697 17 1391 0 1668 -2 1696 -14z"/>
<path d="M1834 5974 l-359 -366 -140 163 c-184 215 -177 209 -219 209 -29 0
-49 -12 -108 -62 -135 -113 -158 -139 -158 -174 0 -37 -11 -23 277 -350 116
-132 224 -249 240 -260 20 -14 45 -19 94 -19 55 0 72 4 105 27 21 15 236 225
477 466 522 523 487 462 345 610 -117 122 -116 121 -159 122 -34 0 -54 -19
-395 -366z"/>
<path d="M2776 6274 c-13 -13 -16 -42 -16 -163 0 -131 2 -150 18 -164 17 -16
111 -17 1143 -17 1002 0 1127 2 1147 16 21 14 22 22 22 163 0 131 -2 150 -18
164 -17 16 -111 17 -1150 17 -1014 0 -1132 -2 -1146 -16z"/>
<path d="M4823 5535 c-93 -47 -140 -137 -130 -253 4 -52 96 -342 396 -1257
215 -655 400 -1217 411 -1250 l20 -60 -23 25 c-14 14 -160 183 -326 377 -311
362 -345 395 -445 429 -106 36 -250 2 -318 -75 -77 -87 -95 -218 -46 -336 25
-62 707 -1077 803 -1196 30 -37 223 -232 430 -432 279 -271 388 -372 427 -391
80 -40 136 -36 383 30 788 210 1364 366 1390 376 42 17 113 85 136 130 23 46
34 126 50 371 20 315 31 261 -220 1096 -129 428 -231 751 -246 777 -30 50 -71
84 -141 116 -67 30 -186 30 -264 -1 -30 -11 -67 -21 -82 -21 -15 0 -68 21
-118 47 -77 39 -102 47 -164 51 -85 5 -154 -9 -245 -49 l-63 -29 -36 32 c-20
17 -61 43 -92 57 -48 23 -68 26 -155 26 -114 -1 -176 -19 -279 -82 -66 -40
-125 -49 -150 -23 -9 8 -134 314 -279 680 -145 366 -273 683 -285 705 -68 132
-219 189 -339 130z"/>
<path d="M2782 5484 c-21 -14 -22 -22 -22 -164 0 -122 3 -151 16 -164 14 -14
99 -16 784 -16 685 0 770 2 784 16 13 13 16 42 16 164 0 142 -1 150 -22 164
-20 14 -110 16 -778 16 -668 0 -758 -2 -778 -16z"/>
<path d="M1115 4056 c-17 -7 -43 -28 -58 -45 l-27 -33 0 -425 c0 -476 -1 -466
72 -504 35 -18 64 -19 440 -19 449 0 449 0 495 69 23 34 23 34 23 450 0 395
-1 418 -20 448 -42 70 -29 68 -485 70 -326 2 -416 0 -440 -11z"/>
<path d="M2580 4051 c-5 -11 -10 -79 -10 -151 0 -72 5 -140 10 -151 10 -19 29
-19 759 -19 674 0 749 2 755 16 12 31 7 299 -6 312 -9 9 -190 12 -755 12 -724
0 -743 0 -753 -19z"/>
<path d="M2580 3351 c-5 -11 -10 -79 -10 -151 0 -72 5 -140 10 -151 10 -18 27
-19 516 -19 l504 0 10 26 c13 34 13 270 0 295 -10 18 -27 19 -515 19 -488 0
-505 -1 -515 -19z"/>
<path d="M1105 2460 c-77 -38 -75 -25 -75 -500 0 -475 -2 -463 75 -500 39 -19
63 -20 441 -20 445 0 445 0 491 69 23 34 23 34 23 451 0 417 0 417 -23 451
-46 69 -46 69 -492 69 -380 0 -402 -1 -440 -20z"/>
<path d="M2580 2461 c-5 -11 -10 -79 -10 -151 0 -72 5 -140 10 -151 10 -19 29
-19 759 -19 674 0 749 2 755 16 12 31 7 299 -6 312 -9 9 -190 12 -755 12 -724
0 -743 0 -753 -19z"/>
<path d="M2580 1761 c-5 -11 -10 -79 -10 -151 0 -72 5 -140 10 -151 10 -18 27
-19 516 -19 l504 0 10 26 c13 34 13 270 0 295 -10 18 -27 19 -515 19 -488 0
-505 -1 -515 -19z"/>
</g>
</svg>
