
<svg version="1.0" xmlns="http://www.w3.org/2000/svg"
 width="40px" height="40px" viewBox="0 0 800.000000 640.000000"
 preserveAspectRatio="xMidYMid meet">

<g transform="translate(0.000000,640.000000) scale(0.100000,-0.100000)"
fill="#156cb0" stroke="none">
<path d="M699 6390 c-72 -9 -190 -45 -254 -77 -202 -102 -340 -270 -412 -500
l-28 -88 0 -1980 c0 -2248 -8 -2048 86 -2235 110 -220 322 -379 566 -426 113
-21 6575 -21 6685 0 176 35 292 98 423 230 79 78 98 105 143 196 95 194 87
-22 87 2230 l0 1985 -28 88 c-88 283 -271 466 -554 554 l-88 28 -3285 1
c-1807 1 -3310 -2 -3341 -6z m6573 -530 c63 -18 129 -70 162 -130 l31 -55 3
-1920 c2 -2111 6 -1980 -58 -2058 -17 -20 -53 -49 -78 -65 l-47 -27 -3285 0
-3285 0 -47 27 c-25 16 -61 45 -78 65 -64 78 -60 -53 -58 2058 l3 1920 31 55
c32 58 99 112 158 129 45 13 6500 14 6548 1z"/>
<path d="M2447 5315 c-641 -92 -1166 -562 -1326 -1188 -96 -373 -51 -773 125
-1117 79 -155 162 -268 294 -400 227 -227 469 -362 785 -436 112 -26 135 -28
335 -29 237 0 313 10 489 67 525 168 932 601 1065 1134 38 153 49 260 44 444
-4 132 -11 189 -33 285 -49 215 -131 400 -255 578 -81 115 -267 303 -383 384
-176 124 -393 217 -612 263 -133 27 -391 35 -528 15z m223 -1045 l0 -530 529
0 c317 0 532 -4 536 -9 3 -5 1 -51 -5 -103 -30 -261 -138 -486 -318 -660 -492
-476 -1293 -378 -1655 204 -229 367 -205 866 58 1208 192 250 505 415 793 419
l62 1 0 -530z"/>
<path d="M4800 4535 l0 -265 1065 0 1065 0 0 265 0 265 -1065 0 -1065 0 0
-265z"/>
<path d="M4800 3465 l0 -265 1065 0 1065 0 0 265 0 265 -1065 0 -1065 0 0
-265z"/>
<path d="M2140 265 l0 -265 1860 0 1860 0 0 265 0 265 -1860 0 -1860 0 0 -265z"/>
</g>
</svg>
