
<svg version="1.0" xmlns="http://www.w3.org/2000/svg"
 width="40px" height="40px" viewBox="0 0 800.000000 736.000000"
 preserveAspectRatio="xMidYMid meet">

<g transform="translate(0.000000,736.000000) scale(0.100000,-0.100000)"
fill="#156cb0" stroke="none">
<path d="M2611 7350 c-268 -37 -501 -212 -616 -464 -51 -111 -69 -195 -69
-326 0 -131 18 -215 69 -327 103 -224 299 -387 540 -448 103 -27 276 -25 383
4 285 75 504 298 577 586 24 95 24 275 0 370 -59 235 -210 422 -431 533 -122
62 -311 91 -453 72z"/>
<path d="M5135 7349 c-88 -13 -162 -37 -240 -76 -93 -47 -149 -89 -227 -171
-209 -221 -272 -536 -165 -821 89 -236 299 -427 544 -493 120 -32 298 -29 418
6 280 84 485 296 556 575 18 71 21 105 17 220 -4 120 -8 146 -35 223 -111 317
-383 524 -714 542 -52 2 -121 1 -154 -5z"/>
<path d="M2586 5589 c-38 -5 -96 -16 -130 -25 -76 -20 -216 -73 -216 -82 1 -4
23 -25 51 -47 139 -111 292 -337 363 -533 73 -203 91 -472 47 -681 -53 -249
-172 -469 -351 -648 l-91 -91 85 -51 c131 -79 250 -177 372 -303 l111 -116
-24 60 c-50 123 -76 270 -77 433 -1 167 11 253 56 395 135 426 489 756 922
860 43 11 81 21 84 24 9 10 -57 178 -100 253 -160 280 -424 471 -745 538 -94
19 -270 26 -357 14z"/>
<path d="M5110 5590 c-352 -44 -674 -262 -839 -570 -41 -77 -91 -200 -91 -224
0 -9 18 -16 50 -20 79 -11 217 -54 307 -96 318 -149 560 -413 677 -738 92
-257 95 -566 7 -828 l-28 -83 46 52 c118 133 292 277 433 357 l77 43 -78 76
c-150 147 -261 325 -325 523 -47 143 -60 230 -60 393 -1 161 13 248 60 394 65
200 170 370 322 519 46 46 82 85 79 88 -16 16 -191 78 -267 94 -108 24 -267
32 -370 20z"/>
<path d="M1260 5416 c-312 -67 -575 -281 -695 -565 -60 -141 -70 -199 -69
-381 0 -150 3 -173 28 -255 107 -355 377 -603 736 -677 121 -25 304 -20 425
11 331 87 595 351 687 688 28 104 31 352 5 457 -86 343 -334 602 -672 702 -75
22 -115 27 -235 30 -98 2 -166 -1 -210 -10z"/>
<path d="M6380 5416 c-312 -67 -575 -281 -695 -565 -60 -141 -70 -199 -69
-381 0 -150 3 -173 28 -255 107 -355 377 -603 736 -677 121 -25 304 -20 425
11 331 87 595 351 687 688 28 104 31 352 5 457 -86 343 -334 602 -672 702 -75
22 -115 27 -235 30 -98 2 -166 -1 -210 -10z"/>
<path d="M3820 4456 c-312 -67 -575 -281 -695 -565 -60 -141 -70 -199 -69
-381 0 -150 3 -173 28 -255 107 -355 377 -603 736 -677 121 -25 304 -20 425
11 331 87 595 351 687 688 28 104 31 352 5 457 -86 343 -334 602 -672 702 -75
22 -115 27 -235 30 -98 2 -166 -1 -210 -10z"/>
<path d="M1330 3354 c-218 -26 -386 -74 -547 -158 -400 -210 -673 -578 -759
-1026 -12 -65 -17 -171 -21 -445 -5 -378 -2 -418 38 -468 50 -65 334 -173 579
-221 451 -90 1100 -97 1561 -16 l66 12 6 89 c26 366 208 764 476 1041 l105
109 -34 102 c-159 488 -574 853 -1085 956 -97 19 -313 33 -385 25z"/>
<path d="M6415 3350 c-558 -61 -1029 -435 -1211 -963 l-36 -107 103 -108 c132
-137 221 -262 304 -427 102 -204 166 -424 181 -627 8 -100 -7 -89 154 -112
702 -101 1548 -22 1943 181 96 49 121 75 138 137 17 64 6 738 -15 841 -42 215
-128 422 -247 590 -213 300 -560 517 -923 580 -114 19 -288 26 -391 15z"/>
<path d="M3780 2375 c-528 -87 -969 -459 -1134 -955 -67 -203 -69 -215 -73
-657 -5 -463 -7 -452 81 -508 250 -159 756 -255 1351 -255 602 0 1092 94 1363
262 18 11 41 37 52 59 19 36 20 60 20 391 0 263 -4 379 -15 453 -90 599 -532
1066 -1135 1200 -105 23 -397 29 -510 10z"/>
</g>
</svg>
